<?xml version="1.0" encoding="UTF-8"?><svg id="Layer_1" xmlns="http://www.w3.org/2000/svg" viewBox="0 0 954.93 314.88"><defs><style>.cls-1{isolation:isolate;}.cls-2{fill:#29cc68;}</style></defs><g id="YAA."><g id="Group_26"><g class="cls-1"><path d="M111.82,198.82L0,0h103.78l49.33,101.66h2.92L205.37,0h103.78l-111.82,198.82v116.06h-85.51v-116.06Z"/><path d="M465.93,282.94h-92.09l-6.94,31.94h-88.8L352.64,0h134.48l74.55,314.88h-88.8l-6.94-31.94ZM447.66,198.82l-24.85-115.61h-5.85l-24.85,115.61h55.55Z"/><path d="M749.5,282.94h-92.09l-6.94,31.94h-88.8L636.21,0h134.48l74.55,314.88h-88.8l-6.94-31.94ZM731.22,198.82l-24.85-115.61h-5.85l-24.85,115.61h55.55Z"/></g></g></g><rect id="Rectangle_82" class="cls-2" x="868.84" y="234.94" width="86.09" height="79.94"/></svg>