<?xml version="1.0" encoding="UTF-8"?><svg id="Layer_1" xmlns="http://www.w3.org/2000/svg" viewBox="0 0 2440.74 861.4"><defs><style>.cls-1{isolation:isolate;}.cls-2{fill:#29cc68;}</style></defs><g id="Group_27"><g id="YASIR_ABOANMAR" class="cls-1"><g class="cls-1"><path d="M111.93,199.39L0,0h103.89l49.38,101.95h2.93L205.58,0h103.89l-111.93,199.39v116.39h-85.6v-116.39Z"/><path d="M466.39,283.75h-92.18l-6.95,32.03h-88.89L353,0h134.61l74.62,315.78h-88.89l-6.95-32.03ZM448.1,199.39l-24.87-115.93h-5.85l-24.87,115.93h55.6Z"/><path d="M574.3,232.32h133.52c11.34,0,16.83-6.32,16.83-16.69s-5.49-16.24-17.19-16.24h-60.72c-42.8,0-77.55-36.09-77.55-99.7,0-73.08,40.6-99.69,81.57-99.69h151.44v83.46h-130.59c-9.88,0-16.83,4.51-16.83,15.79s6.95,16.69,16.83,16.69h57.06c49.02,0,81.57,35.64,81.57,99.24,0,60-36.58,100.6-84.13,100.6h-152.9l1.1-83.45Z"/><path d="M839.5,0h85.6v315.78h-85.6V0Z"/><path d="M1085.68,198.94h-40.24v116.84h-85.6V0h181.07c51.94,0,83.4,36.99,83.4,100.15,0,41.95-22.68,75.79-53.04,90.67l61.45,124.96h-92.91l-54.14-116.84ZM1045.44,116.39h79.38c8.05,0,13.9-6.77,13.9-17.14,0-11.28-5.85-16.24-13.9-16.24h-79.38v33.38Z"/></g><g class="cls-1"><path d="M189.85,824.86h-92.18l-6.95,32.03H1.83l74.62-315.78h134.61l74.62,315.78h-88.89l-6.95-32.03ZM171.56,740.51l-24.87-115.94h-5.85l-24.87,115.94h55.6Z"/><path d="M553.44,697.65c9.51,16.24,15.36,36.99,15.36,59.1,0,63.16-31.82,100.15-83.77,100.15h-182.9v-315.78h182.9c51.94,0,83.77,36.54,83.77,99.69,0,21.2-5.85,41.05-15.36,56.84ZM387.74,623.67v34.29h84.86c8.05,0,13.9-6.77,13.9-17.59s-5.85-16.69-13.9-16.69h-84.86ZM486.5,756.75c0-10.83-5.85-17.14-13.9-17.14h-84.86v34.74h84.86c8.05,0,13.9-6.77,13.9-17.59Z"/><path d="M592.58,698.55c0-89.77,59.26-162.4,132.05-162.4s132.05,72.63,132.05,162.4-59.26,162.85-132.05,162.85-132.05-72.63-132.05-162.85ZM771.82,698.55c0-32.03-21.22-58.19-47.19-58.19s-47.19,26.17-47.19,58.19,21.22,58.64,47.19,58.64,47.19-26.17,47.19-58.64Z"/><path d="M1041.05,824.86h-92.18l-6.95,32.03h-88.89l74.62-315.78h134.61l74.62,315.78h-88.89l-6.95-32.03ZM1022.76,740.51l-24.87-115.94h-5.85l-24.87,115.94h55.6Z"/><path d="M1153.34,541.12h85.6l101.69,164.2h2.56v-164.2h85.6v315.78h-85.6l-101.33-158.79h-2.93v158.79h-85.6v-315.78Z"/><path d="M1461.7,541.12h86.69l57.43,100.15h2.93l57.43-100.15h86.69v315.78h-85.6v-165.11h-2.19l-56.33,91.58h-2.93l-56.33-91.58h-2.19v165.11h-85.6v-315.78Z"/><path d="M1957.35,824.86h-92.18l-6.95,32.03h-88.89l74.62-315.78h134.61l74.62,315.78h-88.89l-6.95-32.03ZM1939.06,740.51l-24.87-115.94h-5.85l-24.87,115.94h55.6Z"/><path d="M2195.48,740.05h-40.24v116.84h-85.6v-315.78h181.07c51.94,0,83.4,36.99,83.4,100.15,0,41.95-22.68,75.79-53.04,90.67l61.45,124.96h-92.91l-54.14-116.84ZM2155.24,657.5h79.38c8.05,0,13.9-6.77,13.9-17.14,0-11.28-5.85-16.24-13.9-16.24h-79.38v33.38Z"/></g></g><rect id="Rectangle_82" class="cls-2" x="2354.72" y="777.01" width="86.02" height="79.88"/></g></svg>